# xmcd CD database file
#
# Track frame offsets:
#	150
#	12684
#	26284
#	38967
#	49384
#	62743
#	75294
#	89160
#	103971
#	116184
#	128672
#	142356
#	154602
#	168559
#	180857
#	194051
#	204257
#	217332
#	231317
#	243023
#	253269
#	263906
#	276387
#	286575
#
# Disc length: 3963 seconds
#
# Revision: 0
# Processed by: cddbd v1.5.2PL0 Copyright (c) Steve Scherf et al.
# Submitted via: CDex 1.75
#
DISCID=6f0f7918
DTITLE=Muddy Waters - The Chess Singles Collection and At Newport 1960 CD3
DYEAR=1960
DGENRE=Blues
TTITLE0=Good news
TTITLE1=Come home baby, I wish you would
TTITLE2=Live the life I love (love the life I live)
TTITLE3=Evil
TTITLE4=I won't go on
TTITLE5=She's got it
TTITLE6=Close to you
TTITLE7=She's nineteen years old
TTITLE8=Walking thru the park
TTITLE9=Mean mistreater
TTITLE10=Clouds in my heart
TTITLE11=Ooh wee
TTITLE12=Take the bitter with the sweet
TTITLE13=She's into something
TTITLE14=Recipe for love
TTITLE15=Tell me baby
TTITLE16=I feel so good
TTITLE17=When I get to thinking
TTITLE18=Read way back
TTITLE19=I'm your doctor
TTITLE20=Look what you've done
TTITLE21=Love affair
TTITLE22=Tiger in your tank
TTITLE23=Meanest woman
EXTD=YEAR: 1960
EXTT0=
EXTT1=
EXTT2=
EXTT3=
EXTT4=
EXTT5=
EXTT6=
EXTT7=
EXTT8=
EXTT9=
EXTT10=
EXTT11=
EXTT12=
EXTT13=
EXTT14=
EXTT15=
EXTT16=
EXTT17=
EXTT18=
EXTT19=
EXTT20=
EXTT21=
EXTT22=
EXTT23=
PLAYORDER=
